<svg version="1.0" xmlns="http://www.w3.org/2000/svg" width="4444" height="4444" viewBox="0 0 3333 3333"><path d="M1472.5 1.1c-57 8.4-101.6 50.3-115.1 107.9-1.5 6.5-1.8 15.2-2.3 67l-.6 59.4-4 .9c-29.9 6.6-86.4 21.5-117.5 31.1-9 2.8-11.7 3.3-12.6 2.3-.6-.6-11.8-19.9-24.9-42.7-13.2-22.8-26-44.7-28.7-48.6-23.8-35.8-62.2-57.7-106.8-60.9-17.5-1.3-40.9 2.8-59.4 10.4-9.3 3.8-315 179.6-329.6 189.5-10.5 7.2-26.4 23.3-33.8 34.4-16.2 24.3-23.6 48.7-23.6 77.7 0 21.4 3.7 38.5 12.4 57 2 4.4 15.3 28 29.4 52.4l25.6 44.3-9.2 8.6c-12 11.1-68.9 68-80 80l-8.6 9.2-44.3-25.6c-24.4-14.1-48-27.4-52.4-29.4-18.6-8.7-35.6-12.4-57-12.4-16.7 0-26.7 1.6-42.5 6.6-28.7 9.1-54.8 28.7-71.7 53.8-8.4 12.5-184.1 318.7-187.4 326.6-7.6 18-11.8 42.2-10.4 59.9 2.6 34.9 16.2 65.3 40 89 12.6 12.7 19.5 17.3 70.5 46.5 22.3 12.8 41.1 23.8 41.7 24.4 1 .9.5 3.6-2.3 12.6-9.6 31.1-24.5 87.6-31.1 117.5l-.9 4-59.4.6c-51.8.5-60.5.8-67 2.3C53.8 1370.3 14.4 1410 2.4 1465c-1.8 8.1-1.9 17.1-1.9 201.5 0 184.5.1 193.4 1.9 201.5 12 54.7 51.6 94.7 106.6 107.6 6.5 1.5 15.2 1.8 67 2.3l59.4.6.9 4c6.6 29.9 21.5 86.4 31.1 117.5 2.8 9 3.3 11.7 2.3 12.6-.6.6-19.9 11.8-42.7 24.9-22.8 13.1-45.5 26.6-50.5 29.9-11.8 8-27.4 23.6-35.3 35.4-25.9 38.9-30.9 86.6-13.5 129.2 2.5 6.1 36.7 66.3 94.3 166 49.7 86.1 92 159 94 162 6.3 9.3 17.1 21 26 28.3 41.3 33.5 97.2 40.8 144.5 18.7 4.4-2 28-15.3 52.4-29.4l44.3-25.6 8.6 9.2c11.2 12.2 69.2 70.2 80.5 80.5l8.7 8-25.6 44.4c-14.1 24.4-26.9 46.9-28.4 49.9-4.1 8.2-8.7 21.8-11.2 33.3-3 14.3-3.1 38.9 0 52.9 4.3 19.7 10.4 34.5 20.9 50.2 7.9 11.9 23.4 27.8 34.3 35.2 14.6 10 320.3 185.7 329.6 189.5 18.3 7.5 41.9 11.7 58.9 10.5 45.4-3.3 84.5-25.7 108-62.1 2.9-4.4 15.7-26.2 28.5-48.5s23.8-41.1 24.4-41.7c.9-1 3.6-.5 12.6 2.3 31.1 9.6 87.6 24.5 117.5 31.1l4 .9.6 59.9.5 60 2.6 10c14.2 54 52.8 91.3 106.9 103.1 8 1.8 17.1 1.9 201.4 1.9 184.5 0 193.4-.1 201.5-1.9 54.9-12 94.5-51.3 107.6-106.9 1.5-6.2 1.8-15.3 2.3-66.7l.6-59.4 4-.9c29.9-6.6 86.4-21.5 117.5-31.1 9-2.8 11.7-3.3 12.6-2.3.6.6 11.8 19.9 24.9 42.7 13.2 22.8 26 44.7 28.7 48.6 23.9 36 62.3 57.8 107.3 61 16.7 1.1 40.1-2.9 58.3-10.2 10.1-4.1 322.1-183.8 332.9-191.8 16.4-12.2 32.5-31.7 41.2-49.9 9.5-20.1 13.4-37.6 13.5-59.7 0-16.8-1.5-26.8-6.1-41.4-4.1-13-8.6-21.6-35.7-68.5l-25.7-44.4 9.3-8.5c12-11.1 68.9-68 80-80l8.5-9.3 44.4 25.7c24.4 14.2 48 27.4 52.4 29.4 9.9 4.6 21.5 8.3 33.1 10.6 12.1 2.4 35.7 2.4 47.9 0 38-7.5 69.2-27.8 90-58.6 5-7.4 177.7-306.5 183.7-318 9-17.5 14.1-39.3 14.1-60.5 0-32.5-10.4-62-30.6-87.1-14.4-17.9-22.3-23.5-79.7-56.4-22.3-12.8-41.1-23.8-41.8-24.5-1-.9-.6-3.3 2.3-12.6 9.1-28.8 21.6-76 30.7-115.4l1.4-6 59.4-.6c64.3-.6 63.2-.5 81.7-6.5 39.8-12.8 72.9-45.3 86.6-84.9 7.8-22.6 7.2-3.9 7.2-220 0-184.5-.1-193.4-1.9-201.5-12-54.7-51.6-94.7-106.6-107.6-6.5-1.5-15.2-1.8-67-2.3l-59.4-.6-.9-4c-6.6-29.9-21.5-86.4-31.1-117.5-2.8-9-3.3-11.7-2.3-12.6.6-.6 19.4-11.6 41.7-24.4 51-29.3 57.9-33.8 70.5-46.5 39.1-39 50.8-98.2 29.6-148.9-3.5-8.5-179.4-314.7-188.1-327.6-6.3-9.3-17.1-21-26-28.3-41.3-33.6-97.1-40.8-144.5-18.7-4.4 2-28 15.3-52.4 29.4l-44.3 25.6-8.6-9.2c-11.1-12-68-68.9-80-80l-9.2-8.6 25.6-44.3c14.1-24.4 26.9-46.9 28.4-49.9 4.1-8.2 8.7-21.8 11.2-33.3 3-14.3 3.1-38.9 0-52.9-4.3-19.7-10.4-34.5-20.9-50.2-7.9-11.9-23.4-27.8-34.3-35.2-14.6-9.9-320.3-185.7-329.6-189.5-18.5-7.6-41.9-11.7-59.4-10.4-45 3.2-84 25.7-107.5 62-2.9 4.4-15.7 26.2-28.5 48.5s-23.8 41.1-24.4 41.7c-.9 1-3.6.5-12.6-2.3-31.1-9.6-87.6-24.5-117.5-31.1l-4-.9-.6-59.4c-.5-51.7-.8-60.5-2.3-67-12.7-54.5-50.5-92.6-105.6-106.3l-8.5-2.1L1670 .4c-106.2-.1-194.2.2-197.5.7zm373.5 105c10.8 1.7 19.6 8.6 24.4 18.8 2.1 4.5 2.1 5.5 2.6 85.1.5 80 .5 80.5 2.7 86.3 3.1 8.3 7.5 14.8 14.4 21.1 9.5 8.8 15 10.9 43.1 16.6 59.6 12 110.1 25.5 169.8 45.5 12.7 4.2 25.1 7.8 28.5 8.1 9 .9 19.4-1.1 28.5-5.7 14.2-7.1 15.6-9.1 57.5-82 23.9-41.5 38.3-65.6 40.8-68 6.3-6.2 11.9-8.3 21.7-8.4 7 0 9.3.4 13 2.4 2.5 1.3 72.7 41.7 156 89.8 89 51.4 153.1 89 155.3 91.1 7.8 7.5 11.4 19.5 8.8 29.8-.7 2.8-16.1 30.5-38.8 69.8-42.8 74-42.8 74-42 90.1.8 18.8 5.9 27.3 27.9 46.6 45.3 39.6 89.1 83.4 128.8 128.7 15 17.1 21.1 22.1 31.8 26.3 7.7 3.1 25.9 3.4 34.2.5 3-1 35-18.9 71.1-39.7 40-23 67.4-38.2 70.3-39 10.3-2.6 22.3.9 29.8 8.8 2.1 2.2 39.8 66.5 91.1 155.3 48.1 83.3 88.5 153.5 89.8 156 1.9 3.7 2.3 6 2.3 13 0 7.2-.4 9.3-2.6 13.5-1.4 2.8-4.6 6.9-7 9-2.4 2.3-32.2 20.1-67.7 40.5-53.2 30.6-64.5 37.5-70.2 42.8-11.6 10.8-17.7 26-16.5 41.2.4 5.7 2.4 13 8.1 30 19.4 57.5 33.2 109 45.4 169.4 5.8 28.6 7.9 34 16.5 43.3 6.5 7 12.9 11.4 21.3 14.6 5.8 2.2 6.3 2.2 86.3 2.7l80.5.5 5.7 2.8c3.3 1.6 7.6 4.9 10.2 7.8 8.3 9.2 7.6-7.9 7.6 195.4s.7 186.2-7.6 195.4c-2.6 2.9-6.9 6.2-10.2 7.8l-5.7 2.8-80.5.5c-80 .5-80.5.5-86.3 2.7-8.4 3.2-14.8 7.6-21.3 14.6-8.6 9.3-10.7 14.7-16.5 43.3-12.1 59.9-25.4 109.8-44.9 167.9-4.6 13.7-8.3 26.5-8.6 30-.9 9 1.1 19.4 5.7 28.5 7.1 14.2 9.1 15.6 81.8 57.5 35.4 20.3 65.8 38.5 67.7 40.3 1.9 1.8 4.6 5.7 6.1 8.5 2.3 4.5 2.7 6.4 2.7 13.7 0 7-.4 9.3-2.3 13-1.3 2.5-41.7 72.7-89.8 156-51.4 89-89 153.1-91.1 155.3-7.5 7.9-19.5 11.4-29.8 8.8-2.9-.8-30.2-15.9-70.3-39.1-74.2-42.8-73.8-42.6-90-41.8-18.5 1-27.1 6.2-46.2 28-39.6 45.3-83.4 89.1-128.7 128.8-23.1 20.3-28 28.4-28.9 47.5-.8 16.1-.8 16.1 42 90.1 22.8 39.6 38.1 67 38.8 69.8 2.6 10.3-.9 22.3-8.8 29.8-2.2 2.1-66.4 39.8-155.3 91.1-83.3 48.1-153.5 88.5-156 89.8-3.7 2-6 2.4-13 2.4-7.3 0-9.2-.4-13.7-2.7-2.8-1.5-6.7-4.3-8.5-6.2-1.8-1.9-20-32.3-40.3-67.7-41.9-72.7-43.3-74.7-57.5-81.8-9.1-4.6-19.5-6.6-28.5-5.7-3.4.3-15.8 3.9-28.5 8.1-59.7 20-110.2 33.5-169.8 45.5-28.1 5.7-33.6 7.8-43.1 16.6-6.9 6.3-11.3 12.8-14.4 21.1-2.2 5.8-2.2 6.3-2.7 86.3l-.5 80.5-2.8 5.7c-3.4 6.8-10.8 13.9-17.5 16.5-4.5 1.7-12.5 1.8-181.2 2.1-122.2.2-178.7-.1-183.5-.8-3.8-.6-8.8-2.2-11.1-3.5-5.3-3.1-11.1-9.6-13.8-15.4-2.1-4.5-2.1-5.5-2.6-85.1-.5-80-.5-80.5-2.7-86.3-3.1-8.3-7.5-14.8-14.4-21.1-9.5-8.8-15-10.9-43.4-16.7-60.5-12.2-109.8-25.4-169.5-45.4-12.7-4.2-25.1-7.8-28.5-8.1-9-.9-19.4 1.1-28.5 5.7-14.2 7.1-15.6 9.1-57.5 81.8-21.3 37-38.5 65.7-40.5 67.8-1.9 1.9-5.7 4.7-8.5 6.1-4.3 2.3-6.2 2.7-13.5 2.7-7 0-9.3-.4-13-2.4-2.5-1.3-72.7-41.7-156-89.8-88.8-51.3-153.1-89-155.3-91.1-7.9-7.5-11.4-19.5-8.8-29.8.7-2.9 15.9-30.2 38.8-69.8 20.7-35.8 38.5-67.6 39.6-70.6 3.1-8.3 3-27.3-.2-35.2-4.2-10.7-9.3-16.8-26.3-31.8-45.3-39.7-89.1-83.5-128.7-128.8-19.3-22-27.8-27.1-46.6-27.9-16.1-.8-16.1-.8-90.1 42-39.5 22.8-67 38.1-69.8 38.8-10.3 2.6-22.3-.9-29.8-8.8-2.1-2.2-39.6-66.1-91.1-155.3-48.1-83.3-88.5-153.5-89.8-156-2-3.7-2.4-6-2.4-13 0-7.3.4-9.2 2.7-13.7 1.5-2.8 4.3-6.7 6.2-8.5 1.9-1.8 32.3-20 67.7-40.3 72.7-41.9 74.7-43.3 81.8-57.5 4.6-9.1 6.6-19.5 5.7-28.5-.3-3.4-3.9-15.8-8.1-28.5-20-59.7-33.5-110.2-45.5-169.8-5.7-28.1-7.8-33.6-16.6-43.1-6.3-6.9-12.8-11.3-21.1-14.4-5.8-2.2-6.3-2.2-86.3-2.7-79.6-.5-80.6-.5-85.1-2.6-10.2-4.8-17.1-13.6-18.8-24.4-1.5-9-1.5-350 0-359 1.7-10.8 8.6-19.6 18.8-24.4 4.5-2.1 5.5-2.1 85.1-2.6 80-.5 80.5-.5 86.3-2.7 8.3-3.1 14.8-7.5 21.1-14.4 8.8-9.5 10.9-15 16.6-43.1 12-59.6 25.5-110.1 45.5-169.8 4.2-12.7 7.8-25.1 8.1-28.5.9-9-1.1-19.4-5.7-28.5-7.1-14.2-9.1-15.6-81.8-57.5-35.4-20.3-65.8-38.5-67.7-40.3-1.9-1.8-4.7-5.7-6.2-8.5-2.3-4.5-2.7-6.4-2.7-13.7 0-7 .4-9.3 2.4-13 1.3-2.5 41.7-72.7 89.8-156 51.5-89.2 89-153.1 91.1-155.3 7.5-7.9 19.5-11.4 29.8-8.8 2.8.7 30.2 16 69.8 38.8 74 42.8 74 42.8 90.1 42 18.8-.8 27.3-5.9 46.6-27.9 39.6-45.3 83.4-89.1 128.7-128.8 22.9-20.2 28-28.4 29-47.1.8-16.2 1-15.8-41.9-90-22.8-39.6-38.3-67.5-39-70.3-2.6-10.3 1-22.3 8.8-29.8 2.2-2.1 66.1-39.6 155.3-91.1 83.3-48.1 153.5-88.5 156-89.8 3.7-2 6-2.4 13-2.4 7.3 0 9.2.4 13.7 2.7 2.8 1.5 6.7 4.3 8.5 6.2 1.8 1.9 20 32.3 40.3 67.7 41.9 72.7 43.3 74.7 57.5 81.8 9.1 4.6 19.5 6.6 28.5 5.7 3.4-.3 15.8-3.9 28.5-8.1 59.7-20 110.2-33.5 169.8-45.5 28.1-5.7 33.6-7.8 43.1-16.6 6.9-6.3 11.3-12.8 14.4-21.1 2.2-5.8 2.2-6.3 2.7-86.3.5-79.6.5-80.6 2.6-85.1 4.6-9.8 13.7-17.1 23.5-18.8 8-1.3 351.7-1.4 359.9 0z"/><path d="M1625.5 499.6c-168.2 6.8-326.4 46.6-474 119.4C921.1 732.7 732.7 921.1 619 1151.5c-68 138-106.5 282-117.7 440.5-2.4 34.3-2.4 114.7 0 149 8.2 116.5 30.7 222.7 69.2 327.5 103.1 280.4 312.5 513 581 645.5 137.9 68 282.1 106.5 440.5 117.7 34.3 2.4 114.7 2.4 149 0 116.5-8.2 222.7-30.7 327.5-69.2 280.4-103.1 513-312.5 645.5-581 68-137.9 106.5-282.1 117.7-440.5 2.4-34.3 2.4-114.7 0-149-8.2-116.5-30.7-223-69.2-327.5-103.3-280.6-312.5-513-581-645.5-137.6-67.8-283.8-106.9-439.5-117.5-21.2-1.5-96.6-2.7-116.5-1.9zm111 107.3c100 7.7 182.2 24.1 270.8 54.1 118.4 40.1 230.4 102.1 328.2 181.7 29.2 23.8 49.7 42.4 81.1 73.7 45.3 45.4 77.1 82.7 113.6 133.2 10.1 14 29.1 42.5 28.6 43-.3.2-5-1.4-10.6-3.6-16.6-6.5-20.6-7.4-23.9-5.6-7.2 3.7-56.9 50.4-109.9 103.1-43.8 43.6-39.7 37.5-90.4 137.5-18.5 36.6-41.1 80.9-50.2 98.5-16.6 31.9-48.2 96.1-87.1 176.5-31.9 66-83.7 170.2-125 251.5-41.2 81.1-50.1 98.1-51.3 97.9-1.1-.1-20.5-37.7-89.6-172.9-90.6-177.5-141.2-276-215.8-420-40.8-78.9-47.5-92.4-46.5-93.3.6-.5 20.9-.5 47.5-.1 72.9 1.1 425.2 3.2 458 2.7 29.1-.4 29.6-.5 35.8-3.1 12.4-5.2 20.6-13.3 30.9-30.7 7-11.8 78.3-145.7 85.5-160.7 6.9-14.2 7.2-17.4 2.1-20.9-2.4-1.6-5.4-2.3-12-2.7-4.8-.4-57.6-.9-117.3-1.2-130-.7-926.6 1.3-936.4 2.3-7.2.8-9.6 2.5-9.6 6.6 0 4 47.2 88.9 399 718.1 100.2 179.3 192.6 344.4 205.3 367 12.6 22.5 23.8 42.8 24.8 45 2.7 5.9 2.5 17.4-.5 24.6-1.2 3.1-10.2 20.9-19.8 39.5-9.7 18.7-25.8 49.9-35.8 69.4-10.1 19.5-18.8 36.3-19.5 37.3-1.1 1.6-2.2.1-9.3-13-17-31.6-115.2-216.8-401.2-756.8-222.3-419.7-270.5-510.7-274.4-517.5-3.9-6.7-10.2-11.2-19.9-14.2-7-2.1-8-2.1-49.7-1.5-42 .7-124 2.7-203.5 5.1-22.5.6-41.2 1.1-41.4.9-.9-.6 26.5-37.2 44.1-59 43.1-53.5 104.3-114.7 158.1-158.1C1171 702.4 1381.8 620 1598.5 607c9.9-.6 20.5-1.2 23.5-1.4 11.3-.7 101 .3 114.5 1.3zm903.2 635.1c75.4 171.7 103.2 362.3 80.7 553-23.1 195.7-103.6 384.8-230.1 540.5-23.6 29.1-42.3 49.6-73.7 81.1-31.5 31.4-52 50.1-81.1 73.7-111.6 90.7-240.6 158.1-377.4 197.2-24.2 6.9-60.1 15.9-60.8 15.2-.2-.3 5.6-13.7 13-29.8 7.4-16.2 21.4-47.2 31.2-68.9 34.2-76.1 55.8-121.3 143.3-299 291.6-592.9 448-903 508.2-1008.1 21.2-37 40.2-68.1 40.9-67.3.4.5 3 6.1 5.8 12.4zm-1864.2 27.1c6.3 1.8 10.3 7 21.4 28.5 20.5 39.5 34.7 66.4 48.1 91.4 26.9 50.1 284.3 534.4 516.8 972.5 166.7 314.1 190.9 360 190.6 360.3-.5.7-36.6-4.1-59.9-7.9-180.9-30.1-349.7-106.1-493.2-222.1-53.7-43.4-114.7-104.4-158.1-158.1C718.2 2181.6 639 1997.8 614 1807c-6.6-51.1-8.5-81.7-8.5-140.5s1.9-89.4 8.5-140.5c10.5-79.8 32.9-167.4 61.6-240.9l6.7-17.1h44.6c29.5 0 46 .4 48.6 1.1z"/></svg>